<svg xmlns="http://www.w3.org/2000/svg" fill="url(#paint)" height="48" width="48"><path d="M7 42q-1.2 0-2.1-.9Q4 40.2 4 39V15q0-1.2.9-2.1.9-.9 2.1-.9h9V7q0-1.2.9-2.1.9-.9 2.1-.9h10q1.2 0 2.1.9.9.9.9 2.1v5h9q1.2 0 2.1.9.9.9.9 2.1v24q0 1.2-.9 2.1-.9.9-2.1.9Zm12-30h10V7H19Z"/><defs><linearGradient id="paint" gradientUnits="userSpaceOnUse"><stop stop-color="#997600"/><stop offset="1" stop-color="#fffae8"/><stop offset="2" stop-color="#fef3cb"/><stop offset="3" stop-color="#feecad"/><stop offset="4" stop-color="#333400"/><stop offset="5" stop-color="#ffc80e"/></linearGradient></defs></svg>